%FSLAX44Y44*%
%MOMM*%
G71*
G01*
G75*
%ADD10O,2.0000X1.0000*%
%ADD11O,2.0000X1.0000*%
%ADD12R,1.5000X1.5000*%
%ADD13C,1.5000*%
%ADD14C,1.4000*%
%ADD15R,1.5000X1.5000*%
%ADD16C,1.2000*%
%ADD17R,2.0000X2.0000*%
%ADD18C,2.0000*%
%ADD19C,1.5240*%
%ADD20C,0.6000*%
%ADD21C,0.8000*%
D10*
X425000Y400000D02*
D03*
X300000Y1000000D02*
D03*
X325000Y400000D02*
D03*
X300000Y775000D02*
D03*
X400000Y1000000D02*
D03*
Y775000D02*
D03*
X425000Y625000D02*
D03*
X325000D02*
D03*
D11*
X425000Y425000D02*
D03*
Y450000D02*
D03*
X300000Y975000D02*
D03*
Y950000D02*
D03*
X325000Y425000D02*
D03*
Y450000D02*
D03*
X300000Y800000D02*
D03*
Y825000D02*
D03*
X400000Y975000D02*
D03*
Y950000D02*
D03*
Y800000D02*
D03*
Y825000D02*
D03*
X425000Y600000D02*
D03*
Y575000D02*
D03*
X325000Y600000D02*
D03*
Y575000D02*
D03*
D12*
X350000Y725000D02*
D03*
Y675000D02*
D03*
D13*
X375400Y725000D02*
D03*
X166732Y700786D02*
D03*
X350000Y874600D02*
D03*
Y499600D02*
D03*
X375400Y675000D02*
D03*
D14*
X250000Y561900D02*
D03*
Y638100D02*
D03*
X475000Y561900D02*
D03*
Y638100D02*
D03*
X250000Y838100D02*
D03*
Y761900D02*
D03*
X475000Y838100D02*
D03*
Y761900D02*
D03*
X225000Y638100D02*
D03*
Y561900D02*
D03*
X500000Y638100D02*
D03*
Y561900D02*
D03*
X225000Y761900D02*
D03*
Y838100D02*
D03*
X500000Y761900D02*
D03*
Y838100D02*
D03*
D15*
X166732Y675386D02*
D03*
X350000Y900000D02*
D03*
Y525000D02*
D03*
D16*
X200000Y700400D02*
D03*
Y675000D02*
D03*
D17*
X175000Y852300D02*
D03*
X550000D02*
D03*
X175000Y1002300D02*
D03*
X550000D02*
D03*
X175000Y497700D02*
D03*
X550000D02*
D03*
X175000Y347700D02*
D03*
X550000Y347700D02*
D03*
D18*
X175000Y747700D02*
D03*
X550000D02*
D03*
X175000Y897700D02*
D03*
X550000D02*
D03*
X175000Y602300D02*
D03*
X550000D02*
D03*
X175000Y452300D02*
D03*
X550000Y452300D02*
D03*
D19*
X600000Y325000D02*
D03*
X125000D02*
D03*
X600000Y1025000D02*
D03*
X130000Y1020000D02*
D03*
M02*
