%FSLAX44Y44*%
%MOMM*%
G71*
G01*
G75*
%ADD10O,2.0000X1.0000*%
%ADD11O,2.0000X1.0000*%
%ADD12R,1.5000X1.5000*%
%ADD13C,1.5000*%
%ADD14C,1.4000*%
%ADD15R,1.5000X1.5000*%
%ADD16C,1.2000*%
%ADD17R,2.0000X2.0000*%
%ADD18C,2.0000*%
%ADD19C,1.5240*%
%ADD20C,0.6000*%
%ADD21C,0.8000*%
%ADD22C,0.2540*%
%ADD23C,0.2000*%
%ADD24C,0.1500*%
%ADD25R,2.8000X0.8000*%
D22*
X401677Y389194D02*
G03*
X402172Y461124I23323J35806D01*
G01*
X323323Y1010806D02*
G03*
X322828Y938876I-23323J-35806D01*
G01*
X301677Y389194D02*
G03*
X302172Y461124I23323J35806D01*
G01*
X276677Y764194D02*
G03*
X277172Y836124I23323J35806D01*
G01*
X423323Y1010806D02*
G03*
X422828Y938876I-23323J-35806D01*
G01*
X376677Y764194D02*
G03*
X377172Y836124I23323J35806D01*
G01*
X448323Y635806D02*
G03*
X447828Y563876I-23323J-35806D01*
G01*
X348323Y635806D02*
G03*
X347828Y563876I-23323J-35806D01*
G01*
X268729Y1029207D02*
Y1039364D01*
X266189Y1041903D01*
X261111D01*
X258572Y1039364D01*
Y1029207D01*
X261111Y1026668D01*
X266189D01*
X263650Y1031746D02*
X268729Y1026668D01*
X266189D02*
X268729Y1029207D01*
X273807Y1041903D02*
X283964D01*
Y1039364D01*
X273807Y1029207D01*
Y1026668D01*
X278661Y854101D02*
Y864258D01*
X276122Y866797D01*
X271043D01*
X268504Y864258D01*
Y854101D01*
X271043Y851562D01*
X276122D01*
X273582Y856640D02*
X278661Y851562D01*
X276122D02*
X278661Y854101D01*
X293896Y866797D02*
X283739D01*
Y859180D01*
X288817Y861719D01*
X291357D01*
X293896Y859180D01*
Y854101D01*
X291357Y851562D01*
X286278D01*
X283739Y854101D01*
X403603Y479043D02*
Y489200D01*
X401063Y491739D01*
X395985D01*
X393446Y489200D01*
Y479043D01*
X395985Y476504D01*
X401063D01*
X398524Y481582D02*
X403603Y476504D01*
X401063D02*
X403603Y479043D01*
X416299Y476504D02*
Y491739D01*
X408681Y484122D01*
X418838D01*
X303527Y479043D02*
Y489200D01*
X300987Y491739D01*
X295909D01*
X293370Y489200D01*
Y479043D01*
X295909Y476504D01*
X300987D01*
X298448Y481582D02*
X303527Y476504D01*
X300987D02*
X303527Y479043D01*
X308605Y489200D02*
X311144Y491739D01*
X316223D01*
X318762Y489200D01*
Y486661D01*
X316223Y484122D01*
X313683D01*
X316223D01*
X318762Y481582D01*
Y479043D01*
X316223Y476504D01*
X311144D01*
X308605Y479043D01*
X338836Y746398D02*
Y761633D01*
X346454D01*
X348993Y759094D01*
Y754016D01*
X346454Y751476D01*
X338836D01*
X354071Y746398D02*
X359149D01*
X356610D01*
Y761633D01*
X354071Y759094D01*
X198891Y734488D02*
X196352Y737027D01*
X191273D01*
X188734Y734488D01*
Y724331D01*
X191273Y721792D01*
X196352D01*
X198891Y724331D01*
X214126Y721792D02*
X203969D01*
X214126Y731949D01*
Y734488D01*
X211587Y737027D01*
X206508D01*
X203969Y734488D01*
X162598Y486069D02*
Y470834D01*
X170215D01*
X172755Y473373D01*
Y483530D01*
X170215Y486069D01*
X162598D01*
X177833Y470834D02*
X182911D01*
X180372D01*
Y486069D01*
X177833Y483530D01*
X162598Y636113D02*
Y620878D01*
X170215D01*
X172755Y623417D01*
Y633574D01*
X170215Y636113D01*
X162598D01*
X187990Y620878D02*
X177833D01*
X187990Y631035D01*
Y633574D01*
X185451Y636113D01*
X180372D01*
X177833Y633574D01*
X537464Y486183D02*
Y470948D01*
X545081D01*
X547621Y473487D01*
Y483644D01*
X545081Y486183D01*
X537464D01*
X552699Y483644D02*
X555238Y486183D01*
X560317D01*
X562856Y483644D01*
Y481105D01*
X560317Y478565D01*
X557777D01*
X560317D01*
X562856Y476026D01*
Y473487D01*
X560317Y470948D01*
X555238D01*
X552699Y473487D01*
X537502Y636075D02*
Y620840D01*
X545120D01*
X547659Y623379D01*
Y633536D01*
X545120Y636075D01*
X537502D01*
X560355Y620840D02*
Y636075D01*
X552737Y628457D01*
X562894D01*
X162427Y1036228D02*
Y1020993D01*
X170044D01*
X172584Y1023532D01*
Y1033689D01*
X170044Y1036228D01*
X162427D01*
X187819D02*
X177662D01*
Y1028611D01*
X182740Y1031150D01*
X185280D01*
X187819Y1028611D01*
Y1023532D01*
X185280Y1020993D01*
X180201D01*
X177662Y1023532D01*
X162427Y886228D02*
Y870993D01*
X170044D01*
X172584Y873532D01*
Y883689D01*
X170044Y886228D01*
X162427D01*
X187819D02*
X182740Y883689D01*
X177662Y878611D01*
Y873532D01*
X180201Y870993D01*
X185280D01*
X187819Y873532D01*
Y876071D01*
X185280Y878611D01*
X177662D01*
X537427Y1036228D02*
Y1020993D01*
X545045D01*
X547584Y1023532D01*
Y1033689D01*
X545045Y1036228D01*
X537427D01*
X552662D02*
X562819D01*
Y1033689D01*
X552662Y1023532D01*
Y1020993D01*
X537427Y886228D02*
Y870993D01*
X545045D01*
X547584Y873532D01*
Y883689D01*
X545045Y886228D01*
X537427D01*
X552662Y883689D02*
X555201Y886228D01*
X560280D01*
X562819Y883689D01*
Y881150D01*
X560280Y878611D01*
X562819Y876071D01*
Y873532D01*
X560280Y870993D01*
X555201D01*
X552662Y873532D01*
Y876071D01*
X555201Y878611D01*
X552662Y881150D01*
Y883689D01*
X555201Y878611D02*
X560280D01*
X155556Y722122D02*
Y737357D01*
X163174D01*
X165713Y734818D01*
Y729740D01*
X163174Y727200D01*
X155556D01*
X180948Y722122D02*
X170791D01*
X180948Y732279D01*
Y734818D01*
X178409Y737357D01*
X173330D01*
X170791Y734818D01*
X338874Y546392D02*
Y561627D01*
X346492D01*
X349031Y559088D01*
Y554010D01*
X346492Y551470D01*
X338874D01*
X354109Y559088D02*
X356648Y561627D01*
X361727D01*
X364266Y559088D01*
Y556549D01*
X361727Y554010D01*
X359187D01*
X361727D01*
X364266Y551470D01*
Y548931D01*
X361727Y546392D01*
X356648D01*
X354109Y548931D01*
X338836Y921258D02*
Y936493D01*
X346454D01*
X348993Y933954D01*
Y928876D01*
X346454Y926336D01*
X338836D01*
X361689Y921258D02*
Y936493D01*
X354071Y928876D01*
X364228D01*
X338836Y696214D02*
Y711449D01*
X346454D01*
X348993Y708910D01*
Y703831D01*
X346454Y701292D01*
X338836D01*
X364228Y711449D02*
X354071D01*
Y703831D01*
X359149Y706371D01*
X361689D01*
X364228Y703831D01*
Y698753D01*
X361689Y696214D01*
X356610D01*
X354071Y698753D01*
X310138Y637718D02*
Y647875D01*
X307598Y650414D01*
X302520D01*
X299981Y647875D01*
Y637718D01*
X302520Y635179D01*
X307598D01*
X305059Y640257D02*
X310138Y635179D01*
X307598D02*
X310138Y637718D01*
X315216Y635179D02*
X320294D01*
X317755D01*
Y650414D01*
X315216Y647875D01*
X410138Y637718D02*
Y647875D01*
X407598Y650414D01*
X402520D01*
X399981Y647875D01*
Y637718D01*
X402520Y635179D01*
X407598D01*
X405059Y640257D02*
X410138Y635179D01*
X407598D02*
X410138Y637718D01*
X425373Y635179D02*
X415216D01*
X425373Y645336D01*
Y647875D01*
X422834Y650414D01*
X417755D01*
X415216Y647875D01*
X396561Y842625D02*
Y852782D01*
X394021Y855321D01*
X388943D01*
X386404Y852782D01*
Y842625D01*
X388943Y840086D01*
X394021D01*
X391482Y845164D02*
X396561Y840086D01*
X394021D02*
X396561Y842625D01*
X411796Y855321D02*
X406717Y852782D01*
X401639Y847703D01*
Y842625D01*
X404178Y840086D01*
X409257D01*
X411796Y842625D01*
Y845164D01*
X409257Y847703D01*
X401639D01*
X368805Y1029207D02*
Y1039364D01*
X366265Y1041903D01*
X361187D01*
X358648Y1039364D01*
Y1029207D01*
X361187Y1026668D01*
X366265D01*
X363726Y1031746D02*
X368805Y1026668D01*
X366265D02*
X368805Y1029207D01*
X373883Y1039364D02*
X376422Y1041903D01*
X381501D01*
X384040Y1039364D01*
Y1036825D01*
X381501Y1034286D01*
X384040Y1031746D01*
Y1029207D01*
X381501Y1026668D01*
X376422D01*
X373883Y1029207D01*
Y1031746D01*
X376422Y1034286D01*
X373883Y1036825D01*
Y1039364D01*
X376422Y1034286D02*
X381501D01*
X218910Y653638D02*
Y668873D01*
X226528D01*
X229067Y666334D01*
Y661255D01*
X226528Y658716D01*
X218910D01*
X223988D02*
X229067Y653638D01*
X234145D02*
X239223D01*
X236684D01*
Y668873D01*
X234145Y666334D01*
X243802Y653644D02*
Y668879D01*
X251420D01*
X253959Y666340D01*
Y661262D01*
X251420Y658722D01*
X243802D01*
X248880D02*
X253959Y653644D01*
X269194D02*
X259037D01*
X269194Y663801D01*
Y666340D01*
X266655Y668879D01*
X261576D01*
X259037Y666340D01*
X494030Y653784D02*
Y669019D01*
X501647D01*
X504187Y666480D01*
Y661402D01*
X501647Y658862D01*
X494030D01*
X499108D02*
X504187Y653784D01*
X509265Y666480D02*
X511804Y669019D01*
X516883D01*
X519422Y666480D01*
Y663941D01*
X516883Y661402D01*
X514343D01*
X516883D01*
X519422Y658862D01*
Y656323D01*
X516883Y653784D01*
X511804D01*
X509265Y656323D01*
X468846Y653752D02*
Y668987D01*
X476464D01*
X479003Y666448D01*
Y661369D01*
X476464Y658830D01*
X468846D01*
X473924D02*
X479003Y653752D01*
X491699D02*
Y668987D01*
X484081Y661369D01*
X494238D01*
X218802Y853770D02*
Y869005D01*
X226420D01*
X228959Y866466D01*
Y861387D01*
X226420Y858848D01*
X218802D01*
X223880D02*
X228959Y853770D01*
X244194Y869005D02*
X234037D01*
Y861387D01*
X239115Y863927D01*
X241655D01*
X244194Y861387D01*
Y856309D01*
X241655Y853770D01*
X236576D01*
X234037Y856309D01*
X243986Y853656D02*
Y868891D01*
X251604D01*
X254143Y866352D01*
Y861273D01*
X251604Y858734D01*
X243986D01*
X249064D02*
X254143Y853656D01*
X269378Y868891D02*
X264299Y866352D01*
X259221Y861273D01*
Y856195D01*
X261760Y853656D01*
X266839D01*
X269378Y856195D01*
Y858734D01*
X266839Y861273D01*
X259221D01*
X494031Y853721D02*
Y868956D01*
X501648D01*
X504188Y866417D01*
Y861339D01*
X501648Y858799D01*
X494031D01*
X499109D02*
X504188Y853721D01*
X509266Y868956D02*
X519423D01*
Y866417D01*
X509266Y856260D01*
Y853721D01*
X469030Y853694D02*
Y868929D01*
X476647D01*
X479187Y866390D01*
Y861311D01*
X476647Y858772D01*
X469030D01*
X474108D02*
X479187Y853694D01*
X484265Y866390D02*
X486804Y868929D01*
X491883D01*
X494422Y866390D01*
Y863851D01*
X491883Y861311D01*
X494422Y858772D01*
Y856233D01*
X491883Y853694D01*
X486804D01*
X484265Y856233D01*
Y858772D01*
X486804Y861311D01*
X484265Y863851D01*
Y866390D01*
X486804Y861311D02*
X491883D01*
D23*
X388100Y712300D02*
Y737700D01*
X337300Y712300D02*
X388100D01*
X337300D02*
Y737700D01*
X388100D01*
X250000Y625400D02*
Y627686D01*
Y572314D02*
Y574600D01*
Y625400D02*
X257620D01*
Y574600D02*
Y625400D01*
X242380Y574600D02*
X257620D01*
X242380D02*
Y625400D01*
X250000D01*
X475000D02*
Y627686D01*
Y572314D02*
Y574600D01*
Y625400D02*
X482620D01*
Y574600D02*
Y625400D01*
X467380Y574600D02*
X482620D01*
X467380D02*
Y625400D01*
X475000D01*
X250000Y772314D02*
Y774600D01*
Y825400D02*
Y827686D01*
X242380Y774600D02*
X250000D01*
X242380D02*
Y825400D01*
X257620D01*
Y774600D02*
Y825400D01*
X250000Y774600D02*
X257620D01*
X475000Y772314D02*
Y774600D01*
Y825400D02*
Y827686D01*
X467380Y774600D02*
X475000D01*
X467380D02*
Y825400D01*
X482620D01*
Y774600D02*
Y825400D01*
X475000Y774600D02*
X482620D01*
X225000Y572314D02*
Y574600D01*
Y625400D02*
Y627686D01*
X217380Y574600D02*
X225000D01*
X217380D02*
Y625400D01*
X232620D01*
Y574600D02*
Y625400D01*
X225000Y574600D02*
X232620D01*
X500000Y572314D02*
Y574600D01*
Y625400D02*
Y627686D01*
X492380Y574600D02*
X500000D01*
X492380D02*
Y625400D01*
X507620D01*
Y574600D02*
Y625400D01*
X500000Y574600D02*
X507620D01*
X225000Y825400D02*
Y827686D01*
Y772314D02*
Y774600D01*
Y825400D02*
X232620D01*
Y774600D02*
Y825400D01*
X217380Y774600D02*
X232620D01*
X217380D02*
Y825400D01*
X225000D01*
X500000D02*
Y827686D01*
Y772314D02*
Y774600D01*
Y825400D02*
X507620D01*
Y774600D02*
Y825400D01*
X492380Y774600D02*
X507620D01*
X492380D02*
Y825400D01*
X500000D01*
X154032Y662686D02*
Y713486D01*
Y662686D02*
X179432D01*
Y713486D01*
X154032D02*
X179432D01*
X362700Y861900D02*
Y912700D01*
X337300D02*
X362700D01*
X337300Y861900D02*
Y912700D01*
Y861900D02*
X362700D01*
X187300Y713100D02*
X212700D01*
Y662300D02*
Y713100D01*
X187300Y662300D02*
X212700D01*
X187300D02*
Y713100D01*
X189000Y773500D02*
Y826500D01*
X161000Y773500D02*
Y826500D01*
Y773500D02*
X189000D01*
X564000D02*
Y826500D01*
X536000Y773500D02*
Y826500D01*
Y773500D02*
X564000D01*
X189000Y923500D02*
Y976500D01*
X161000Y923500D02*
Y976500D01*
Y923500D02*
X189000D01*
X564000D02*
Y976500D01*
X536000Y923500D02*
Y976500D01*
Y923500D02*
X564000D01*
X161000Y523500D02*
Y576500D01*
X189000Y523500D02*
Y576500D01*
X161000D02*
X189000D01*
X536000Y523500D02*
Y576500D01*
X564000Y523500D02*
Y576500D01*
X536000D02*
X564000D01*
X161000Y373500D02*
Y426500D01*
X189000Y373500D02*
Y426500D01*
X161000D02*
X189000D01*
X536000Y373500D02*
Y426500D01*
X564000Y373500D02*
Y426500D01*
X536000D02*
X564000D01*
X362700Y486900D02*
Y537700D01*
X337300D02*
X362700D01*
X337300Y486900D02*
Y537700D01*
Y486900D02*
X362700D01*
X337300Y687700D02*
X388100D01*
X337300Y662300D02*
Y687700D01*
Y662300D02*
X388100D01*
Y687700D01*
D24*
X401378Y408744D02*
X396380D01*
X398879D01*
Y393749D01*
X401378Y396248D01*
X402394Y445270D02*
X399895Y442771D01*
X394896D01*
X392397Y445270D01*
Y447769D01*
X394896Y450268D01*
X397396D01*
X394896D01*
X392397Y452768D01*
Y455267D01*
X394896Y457766D01*
X399895D01*
X402394Y455267D01*
X323622Y991256D02*
X328620D01*
X326121D01*
Y1006251D01*
X323622Y1003752D01*
X322606Y954730D02*
X325105Y957229D01*
X330104D01*
X332603Y954730D01*
Y952231D01*
X330104Y949732D01*
X327604D01*
X330104D01*
X332603Y947232D01*
Y944733D01*
X330104Y942234D01*
X325105D01*
X322606Y944733D01*
X301378Y408744D02*
X296380D01*
X298879D01*
Y393749D01*
X301378Y396248D01*
X302394Y445270D02*
X299895Y442771D01*
X294896D01*
X292397Y445270D01*
Y447769D01*
X294896Y450268D01*
X297396D01*
X294896D01*
X292397Y452768D01*
Y455267D01*
X294896Y457766D01*
X299895D01*
X302394Y455267D01*
X276378Y783744D02*
X271380D01*
X273879D01*
Y768749D01*
X276378Y771248D01*
X277394Y820270D02*
X274895Y817771D01*
X269896D01*
X267397Y820270D01*
Y822769D01*
X269896Y825268D01*
X272396D01*
X269896D01*
X267397Y827768D01*
Y830267D01*
X269896Y832766D01*
X274895D01*
X277394Y830267D01*
X423622Y991256D02*
X428620D01*
X426121D01*
Y1006251D01*
X423622Y1003752D01*
X422606Y954730D02*
X425105Y957229D01*
X430104D01*
X432603Y954730D01*
Y952231D01*
X430104Y949732D01*
X427604D01*
X430104D01*
X432603Y947232D01*
Y944733D01*
X430104Y942234D01*
X425105D01*
X422606Y944733D01*
X376378Y783744D02*
X371380D01*
X373879D01*
Y768749D01*
X376378Y771248D01*
X377394Y820270D02*
X374895Y817771D01*
X369896D01*
X367397Y820270D01*
Y822769D01*
X369896Y825268D01*
X372396D01*
X369896D01*
X367397Y827768D01*
Y830267D01*
X369896Y832766D01*
X374895D01*
X377394Y830267D01*
X448622Y616256D02*
X453620D01*
X451121D01*
Y631251D01*
X448622Y628752D01*
X447606Y579730D02*
X450105Y582229D01*
X455104D01*
X457603Y579730D01*
Y577231D01*
X455104Y574732D01*
X452604D01*
X455104D01*
X457603Y572232D01*
Y569733D01*
X455104Y567234D01*
X450105D01*
X447606Y569733D01*
X348622Y616256D02*
X353620D01*
X351121D01*
Y631251D01*
X348622Y628752D01*
X347606Y579730D02*
X350105Y582229D01*
X355104D01*
X357603Y579730D01*
Y577231D01*
X355104Y574732D01*
X352604D01*
X355104D01*
X357603Y572232D01*
Y569733D01*
X355104Y567234D01*
X350105D01*
X347606Y569733D01*
D25*
X174996Y823500D02*
D03*
X549980D02*
D03*
X174991Y973500D02*
D03*
X549998D02*
D03*
X174989Y526500D02*
D03*
X549991Y526486D02*
D03*
X174988Y376485D02*
D03*
X549993Y376500D02*
D03*
M02*
