%FSLAX25Y25*%
%MOIN*%
G70*
G01*
G75*
%ADD10C,0.00500*%
D10*
X301161Y204724D02*
X304508D01*
X302835Y203051D02*
Y206398D01*
X341161Y204724D02*
X344508D01*
X342835Y203051D02*
Y206398D01*
X352343Y216535D02*
X355689D01*
X354016Y214862D02*
Y218209D01*
X392342Y216535D02*
X395689D01*
X394016Y214862D02*
Y218209D01*
X368504Y216535D02*
X371654D01*
X370079Y214961D02*
Y218110D01*
X376378Y216535D02*
X379528D01*
X377953Y214961D02*
Y218110D01*
X362992Y203740D02*
X365354D01*
X364173Y202559D02*
Y204921D01*
X380709Y203740D02*
X383071D01*
X381890Y202559D02*
Y204921D01*
X362992Y229331D02*
X365354D01*
X364173Y228150D02*
Y230512D01*
X380709Y229331D02*
X383071D01*
X381890Y228150D02*
Y230512D01*
X462598Y216535D02*
X482283D01*
X472441Y206693D02*
Y226378D01*
X265748Y216535D02*
X285433D01*
X275590Y206693D02*
Y226378D01*
X274016Y232283D02*
X277165D01*
X275590Y230709D02*
Y233858D01*
X274016Y200787D02*
X277165D01*
X275590Y199213D02*
Y202362D01*
X289764Y216535D02*
X292913D01*
X291339Y214961D02*
Y218110D01*
X258268Y216535D02*
X261417D01*
X259842Y214961D02*
Y218110D01*
X470866Y232283D02*
X474016D01*
X472441Y230709D02*
Y233858D01*
X486614Y216535D02*
X489764D01*
X488189Y214961D02*
Y218110D01*
X470866Y200787D02*
X474016D01*
X472441Y199213D02*
Y202362D01*
X455118Y216535D02*
X458268D01*
X456693Y214961D02*
Y218110D01*
M02*
