%FSLAX25Y25*%
%MOIN*%
G70*
G01*
G75*
G04 Layer_Color=2752767*
%ADD10C,0.00500*%
D10*
X302835Y208890D02*
X303668Y209723D01*
X305334D01*
X306167Y208890D01*
Y208057D01*
X305334Y207224D01*
X304501D01*
X305334D01*
X306167Y206391D01*
Y205557D01*
X305334Y204724D01*
X303668D01*
X302835Y205557D01*
X307833Y208890D02*
X308666Y209723D01*
X310332D01*
X311165Y208890D01*
Y208057D01*
X310332Y207224D01*
X309499D01*
X310332D01*
X311165Y206391D01*
Y205557D01*
X310332Y204724D01*
X308666D01*
X307833Y205557D01*
X312831Y204724D02*
Y205557D01*
X313665D01*
Y204724D01*
X312831D01*
X319496D02*
Y209723D01*
X316997Y207224D01*
X320329D01*
X325327Y209723D02*
X323661Y208890D01*
X321995Y207224D01*
Y205557D01*
X322828Y204724D01*
X324494D01*
X325327Y205557D01*
Y206391D01*
X324494Y207224D01*
X321995D01*
X330326Y209723D02*
X326993D01*
Y207224D01*
X328660Y208057D01*
X329493D01*
X330326Y207224D01*
Y205557D01*
X329493Y204724D01*
X327826D01*
X326993Y205557D01*
X342835Y208890D02*
X343668Y209723D01*
X345334D01*
X346167Y208890D01*
Y208057D01*
X345334Y207224D01*
X344501D01*
X345334D01*
X346167Y206391D01*
Y205557D01*
X345334Y204724D01*
X343668D01*
X342835Y205557D01*
X347833Y208890D02*
X348666Y209723D01*
X350332D01*
X351165Y208890D01*
Y208057D01*
X350332Y207224D01*
X349499D01*
X350332D01*
X351165Y206391D01*
Y205557D01*
X350332Y204724D01*
X348666D01*
X347833Y205557D01*
X352831Y204724D02*
Y205557D01*
X353664D01*
Y204724D01*
X352831D01*
X359496D02*
Y209723D01*
X356997Y207224D01*
X360329D01*
X365327Y209723D02*
X363661Y208890D01*
X361995Y207224D01*
Y205557D01*
X362828Y204724D01*
X364494D01*
X365327Y205557D01*
Y206391D01*
X364494Y207224D01*
X361995D01*
X370326Y209723D02*
X366993D01*
Y207224D01*
X368660Y208057D01*
X369493D01*
X370326Y207224D01*
Y205557D01*
X369493Y204724D01*
X367827D01*
X366993Y205557D01*
X354016Y220701D02*
X354849Y221534D01*
X356515D01*
X357348Y220701D01*
Y219868D01*
X356515Y219035D01*
X355682D01*
X356515D01*
X357348Y218202D01*
Y217369D01*
X356515Y216535D01*
X354849D01*
X354016Y217369D01*
X359014Y220701D02*
X359847Y221534D01*
X361513D01*
X362346Y220701D01*
Y219868D01*
X361513Y219035D01*
X360680D01*
X361513D01*
X362346Y218202D01*
Y217369D01*
X361513Y216535D01*
X359847D01*
X359014Y217369D01*
X364013Y216535D02*
Y217369D01*
X364846D01*
Y216535D01*
X364013D01*
X370677D02*
Y221534D01*
X368178Y219035D01*
X371510D01*
X376508Y221534D02*
X374842Y220701D01*
X373176Y219035D01*
Y217369D01*
X374009Y216535D01*
X375675D01*
X376508Y217369D01*
Y218202D01*
X375675Y219035D01*
X373176D01*
X381507Y221534D02*
X378175D01*
Y219035D01*
X379841Y219868D01*
X380674D01*
X381507Y219035D01*
Y217369D01*
X380674Y216535D01*
X379008D01*
X378175Y217369D01*
X394016Y220701D02*
X394849Y221534D01*
X396515D01*
X397348Y220701D01*
Y219868D01*
X396515Y219035D01*
X395682D01*
X396515D01*
X397348Y218202D01*
Y217369D01*
X396515Y216535D01*
X394849D01*
X394016Y217369D01*
X399014Y220701D02*
X399847Y221534D01*
X401513D01*
X402346Y220701D01*
Y219868D01*
X401513Y219035D01*
X400680D01*
X401513D01*
X402346Y218202D01*
Y217369D01*
X401513Y216535D01*
X399847D01*
X399014Y217369D01*
X404012Y216535D02*
Y217369D01*
X404846D01*
Y216535D01*
X404012D01*
X410677D02*
Y221534D01*
X408178Y219035D01*
X411510D01*
X416508Y221534D02*
X414842Y220701D01*
X413176Y219035D01*
Y217369D01*
X414009Y216535D01*
X415675D01*
X416508Y217369D01*
Y218202D01*
X415675Y219035D01*
X413176D01*
X421507Y221534D02*
X418175D01*
Y219035D01*
X419841Y219868D01*
X420674D01*
X421507Y219035D01*
Y217369D01*
X420674Y216535D01*
X419008D01*
X418175Y217369D01*
X370079Y220701D02*
X370912Y221534D01*
X372578D01*
X373411Y220701D01*
Y219868D01*
X372578Y219035D01*
X371745D01*
X372578D01*
X373411Y218202D01*
Y217369D01*
X372578Y216535D01*
X370912D01*
X370079Y217369D01*
X375077Y216535D02*
X376743D01*
X375910D01*
Y221534D01*
X375077Y220701D01*
X379242Y216535D02*
Y217369D01*
X380076D01*
Y216535D01*
X379242D01*
X385907D02*
Y221534D01*
X383408Y219035D01*
X386740D01*
X388406Y217369D02*
X389239Y216535D01*
X390905D01*
X391738Y217369D01*
Y220701D01*
X390905Y221534D01*
X389239D01*
X388406Y220701D01*
Y219868D01*
X389239Y219035D01*
X391738D01*
X396737Y221534D02*
X395071Y220701D01*
X393405Y219035D01*
Y217369D01*
X394238Y216535D01*
X395904D01*
X396737Y217369D01*
Y218202D01*
X395904Y219035D01*
X393405D01*
X377953Y220701D02*
X378786Y221534D01*
X380452D01*
X381285Y220701D01*
Y219868D01*
X380452Y219035D01*
X379619D01*
X380452D01*
X381285Y218202D01*
Y217369D01*
X380452Y216535D01*
X378786D01*
X377953Y217369D01*
X382951Y216535D02*
X384617D01*
X383784D01*
Y221534D01*
X382951Y220701D01*
X387117Y216535D02*
Y217369D01*
X387949D01*
Y216535D01*
X387117D01*
X393781D02*
Y221534D01*
X391282Y219035D01*
X394614D01*
X396280Y217369D02*
X397113Y216535D01*
X398779D01*
X399612Y217369D01*
Y220701D01*
X398779Y221534D01*
X397113D01*
X396280Y220701D01*
Y219868D01*
X397113Y219035D01*
X399612D01*
X404611Y221534D02*
X402945Y220701D01*
X401278Y219035D01*
Y217369D01*
X402112Y216535D01*
X403778D01*
X404611Y217369D01*
Y218202D01*
X403778Y219035D01*
X401278D01*
X367506Y203740D02*
X364173D01*
X367506Y207072D01*
Y207906D01*
X366672Y208738D01*
X365006D01*
X364173Y207906D01*
X369172D02*
X370005Y208738D01*
X371671D01*
X372504Y207906D01*
Y207072D01*
X371671Y206239D01*
X370838D01*
X371671D01*
X372504Y205406D01*
Y204573D01*
X371671Y203740D01*
X370005D01*
X369172Y204573D01*
X374170Y203740D02*
Y204573D01*
X375003D01*
Y203740D01*
X374170D01*
X381668Y208738D02*
X380001Y207906D01*
X378335Y206239D01*
Y204573D01*
X379168Y203740D01*
X380835D01*
X381668Y204573D01*
Y205406D01*
X380835Y206239D01*
X378335D01*
X386666Y203740D02*
X383334D01*
X386666Y207072D01*
Y207906D01*
X385833Y208738D01*
X384167D01*
X383334Y207906D01*
X391664Y203740D02*
X388332D01*
X391664Y207072D01*
Y207906D01*
X390831Y208738D01*
X389165D01*
X388332Y207906D01*
X385222Y203740D02*
X381890D01*
X385222Y207072D01*
Y207906D01*
X384389Y208738D01*
X382723D01*
X381890Y207906D01*
X386888D02*
X387721Y208738D01*
X389387D01*
X390220Y207906D01*
Y207072D01*
X389387Y206239D01*
X388554D01*
X389387D01*
X390220Y205406D01*
Y204573D01*
X389387Y203740D01*
X387721D01*
X386888Y204573D01*
X391886Y203740D02*
Y204573D01*
X392720D01*
Y203740D01*
X391886D01*
X399384Y208738D02*
X397718Y207906D01*
X396052Y206239D01*
Y204573D01*
X396885Y203740D01*
X398551D01*
X399384Y204573D01*
Y205406D01*
X398551Y206239D01*
X396052D01*
X404383Y203740D02*
X401050D01*
X404383Y207072D01*
Y207906D01*
X403549Y208738D01*
X401883D01*
X401050Y207906D01*
X409381Y203740D02*
X406049D01*
X409381Y207072D01*
Y207906D01*
X408548Y208738D01*
X406882D01*
X406049Y207906D01*
X367506Y229331D02*
X364173D01*
X367506Y232663D01*
Y233496D01*
X366672Y234329D01*
X365006D01*
X364173Y233496D01*
X369172D02*
X370005Y234329D01*
X371671D01*
X372504Y233496D01*
Y232663D01*
X371671Y231830D01*
X370838D01*
X371671D01*
X372504Y230997D01*
Y230164D01*
X371671Y229331D01*
X370005D01*
X369172Y230164D01*
X374170Y229331D02*
Y230164D01*
X375003D01*
Y229331D01*
X374170D01*
X381668Y234329D02*
X380001Y233496D01*
X378335Y231830D01*
Y230164D01*
X379168Y229331D01*
X380835D01*
X381668Y230164D01*
Y230997D01*
X380835Y231830D01*
X378335D01*
X386666Y229331D02*
X383334D01*
X386666Y232663D01*
Y233496D01*
X385833Y234329D01*
X384167D01*
X383334Y233496D01*
X391664Y229331D02*
X388332D01*
X391664Y232663D01*
Y233496D01*
X390831Y234329D01*
X389165D01*
X388332Y233496D01*
X385222Y229331D02*
X381890D01*
X385222Y232663D01*
Y233496D01*
X384389Y234329D01*
X382723D01*
X381890Y233496D01*
X386888D02*
X387721Y234329D01*
X389387D01*
X390220Y233496D01*
Y232663D01*
X389387Y231830D01*
X388554D01*
X389387D01*
X390220Y230997D01*
Y230164D01*
X389387Y229331D01*
X387721D01*
X386888Y230164D01*
X391886Y229331D02*
Y230164D01*
X392720D01*
Y229331D01*
X391886D01*
X399384Y234329D02*
X397718Y233496D01*
X396052Y231830D01*
Y230164D01*
X396885Y229331D01*
X398551D01*
X399384Y230164D01*
Y230997D01*
X398551Y231830D01*
X396052D01*
X404383Y229331D02*
X401050D01*
X404383Y232663D01*
Y233496D01*
X403549Y234329D01*
X401883D01*
X401050Y233496D01*
X409381Y229331D02*
X406049D01*
X409381Y232663D01*
Y233496D01*
X408548Y234329D01*
X406882D01*
X406049Y233496D01*
X472441Y216535D02*
X474107D01*
X473274D01*
Y221534D01*
X472441Y220701D01*
X476606Y217369D02*
X477439Y216535D01*
X479106D01*
X479939Y217369D01*
Y220701D01*
X479106Y221534D01*
X477439D01*
X476606Y220701D01*
Y219868D01*
X477439Y219035D01*
X479939D01*
X484937Y221534D02*
X483271Y220701D01*
X481605Y219035D01*
Y217369D01*
X482438Y216535D01*
X484104D01*
X484937Y217369D01*
Y218202D01*
X484104Y219035D01*
X481605D01*
X486603Y216535D02*
Y217369D01*
X487436D01*
Y216535D01*
X486603D01*
X490768Y220701D02*
X491601Y221534D01*
X493267D01*
X494101Y220701D01*
Y219868D01*
X493267Y219035D01*
X494101Y218202D01*
Y217369D01*
X493267Y216535D01*
X491601D01*
X490768Y217369D01*
Y218202D01*
X491601Y219035D01*
X490768Y219868D01*
Y220701D01*
X491601Y219035D02*
X493267D01*
X499099Y221534D02*
X495767D01*
Y219035D01*
X497433Y219868D01*
X498266D01*
X499099Y219035D01*
Y217369D01*
X498266Y216535D01*
X496600D01*
X495767Y217369D01*
X275590Y216535D02*
X277257D01*
X276424D01*
Y221534D01*
X275590Y220701D01*
X279756Y217369D02*
X280589Y216535D01*
X282255D01*
X283088Y217369D01*
Y220701D01*
X282255Y221534D01*
X280589D01*
X279756Y220701D01*
Y219868D01*
X280589Y219035D01*
X283088D01*
X288087Y221534D02*
X286420Y220701D01*
X284754Y219035D01*
Y217369D01*
X285587Y216535D01*
X287253D01*
X288087Y217369D01*
Y218202D01*
X287253Y219035D01*
X284754D01*
X289753Y216535D02*
Y217369D01*
X290586D01*
Y216535D01*
X289753D01*
X293918Y220701D02*
X294751Y221534D01*
X296417D01*
X297250Y220701D01*
Y219868D01*
X296417Y219035D01*
X297250Y218202D01*
Y217369D01*
X296417Y216535D01*
X294751D01*
X293918Y217369D01*
Y218202D01*
X294751Y219035D01*
X293918Y219868D01*
Y220701D01*
X294751Y219035D02*
X296417D01*
X302249Y221534D02*
X298916D01*
Y219035D01*
X300583Y219868D01*
X301415D01*
X302249Y219035D01*
Y217369D01*
X301415Y216535D01*
X299749D01*
X298916Y217369D01*
X275590Y236449D02*
X276424Y237282D01*
X278090D01*
X278923Y236449D01*
Y235616D01*
X278090Y234783D01*
X277257D01*
X278090D01*
X278923Y233950D01*
Y233117D01*
X278090Y232283D01*
X276424D01*
X275590Y233117D01*
X280589Y232283D02*
X282255D01*
X281422D01*
Y237282D01*
X280589Y236449D01*
X284754Y232283D02*
Y233117D01*
X285587D01*
Y232283D01*
X284754D01*
X291419D02*
Y237282D01*
X288920Y234783D01*
X292252D01*
X293918Y233117D02*
X294751Y232283D01*
X296417D01*
X297250Y233117D01*
Y236449D01*
X296417Y237282D01*
X294751D01*
X293918Y236449D01*
Y235616D01*
X294751Y234783D01*
X297250D01*
X302249Y237282D02*
X300583Y236449D01*
X298916Y234783D01*
Y233117D01*
X299749Y232283D01*
X301415D01*
X302249Y233117D01*
Y233950D01*
X301415Y234783D01*
X298916D01*
X275590Y204953D02*
X276424Y205786D01*
X278090D01*
X278923Y204953D01*
Y204120D01*
X278090Y203287D01*
X277257D01*
X278090D01*
X278923Y202453D01*
Y201621D01*
X278090Y200787D01*
X276424D01*
X275590Y201621D01*
X280589Y200787D02*
X282255D01*
X281422D01*
Y205786D01*
X280589Y204953D01*
X284754Y200787D02*
Y201621D01*
X285587D01*
Y200787D01*
X284754D01*
X291419D02*
Y205786D01*
X288920Y203287D01*
X292252D01*
X293918Y201621D02*
X294751Y200787D01*
X296417D01*
X297250Y201621D01*
Y204953D01*
X296417Y205786D01*
X294751D01*
X293918Y204953D01*
Y204120D01*
X294751Y203287D01*
X297250D01*
X302249Y205786D02*
X300583Y204953D01*
X298916Y203287D01*
Y201621D01*
X299749Y200787D01*
X301415D01*
X302249Y201621D01*
Y202453D01*
X301415Y203287D01*
X298916D01*
X291339Y220701D02*
X292172Y221534D01*
X293838D01*
X294671Y220701D01*
Y219868D01*
X293838Y219035D01*
X293005D01*
X293838D01*
X294671Y218202D01*
Y217369D01*
X293838Y216535D01*
X292172D01*
X291339Y217369D01*
X296337Y216535D02*
X298003D01*
X297170D01*
Y221534D01*
X296337Y220701D01*
X300502Y216535D02*
Y217369D01*
X301335D01*
Y216535D01*
X300502D01*
X307167D02*
Y221534D01*
X304668Y219035D01*
X308000D01*
X309666Y217369D02*
X310499Y216535D01*
X312165D01*
X312998Y217369D01*
Y220701D01*
X312165Y221534D01*
X310499D01*
X309666Y220701D01*
Y219868D01*
X310499Y219035D01*
X312998D01*
X317997Y221534D02*
X316331Y220701D01*
X314664Y219035D01*
Y217369D01*
X315497Y216535D01*
X317164D01*
X317997Y217369D01*
Y218202D01*
X317164Y219035D01*
X314664D01*
X259842Y220701D02*
X260676Y221534D01*
X262342D01*
X263175Y220701D01*
Y219868D01*
X262342Y219035D01*
X261509D01*
X262342D01*
X263175Y218202D01*
Y217369D01*
X262342Y216535D01*
X260676D01*
X259842Y217369D01*
X264841Y216535D02*
X266507D01*
X265674D01*
Y221534D01*
X264841Y220701D01*
X269006Y216535D02*
Y217369D01*
X269839D01*
Y216535D01*
X269006D01*
X275671D02*
Y221534D01*
X273171Y219035D01*
X276504D01*
X278170Y217369D02*
X279003Y216535D01*
X280669D01*
X281502Y217369D01*
Y220701D01*
X280669Y221534D01*
X279003D01*
X278170Y220701D01*
Y219868D01*
X279003Y219035D01*
X281502D01*
X286501Y221534D02*
X284834Y220701D01*
X283168Y219035D01*
Y217369D01*
X284001Y216535D01*
X285667D01*
X286501Y217369D01*
Y218202D01*
X285667Y219035D01*
X283168D01*
X472441Y236449D02*
X473274Y237282D01*
X474940D01*
X475773Y236449D01*
Y235616D01*
X474940Y234783D01*
X474107D01*
X474940D01*
X475773Y233950D01*
Y233117D01*
X474940Y232283D01*
X473274D01*
X472441Y233117D01*
X477439Y232283D02*
X479106D01*
X478272D01*
Y237282D01*
X477439Y236449D01*
X481605Y232283D02*
Y233117D01*
X482438D01*
Y232283D01*
X481605D01*
X488269D02*
Y237282D01*
X485770Y234783D01*
X489102D01*
X490768Y233117D02*
X491601Y232283D01*
X493267D01*
X494101Y233117D01*
Y236449D01*
X493267Y237282D01*
X491601D01*
X490768Y236449D01*
Y235616D01*
X491601Y234783D01*
X494101D01*
X499099Y237282D02*
X497433Y236449D01*
X495767Y234783D01*
Y233117D01*
X496600Y232283D01*
X498266D01*
X499099Y233117D01*
Y233950D01*
X498266Y234783D01*
X495767D01*
X488189Y220701D02*
X489022Y221534D01*
X490688D01*
X491521Y220701D01*
Y219868D01*
X490688Y219035D01*
X489855D01*
X490688D01*
X491521Y218202D01*
Y217369D01*
X490688Y216535D01*
X489022D01*
X488189Y217369D01*
X493187Y216535D02*
X494853D01*
X494020D01*
Y221534D01*
X493187Y220701D01*
X497353Y216535D02*
Y217369D01*
X498186D01*
Y216535D01*
X497353D01*
X504017D02*
Y221534D01*
X501518Y219035D01*
X504850D01*
X506516Y217369D02*
X507349Y216535D01*
X509016D01*
X509849Y217369D01*
Y220701D01*
X509016Y221534D01*
X507349D01*
X506516Y220701D01*
Y219868D01*
X507349Y219035D01*
X509849D01*
X514847Y221534D02*
X513181Y220701D01*
X511515Y219035D01*
Y217369D01*
X512348Y216535D01*
X514014D01*
X514847Y217369D01*
Y218202D01*
X514014Y219035D01*
X511515D01*
X472441Y204953D02*
X473274Y205786D01*
X474940D01*
X475773Y204953D01*
Y204120D01*
X474940Y203287D01*
X474107D01*
X474940D01*
X475773Y202453D01*
Y201621D01*
X474940Y200787D01*
X473274D01*
X472441Y201621D01*
X477439Y200787D02*
X479106D01*
X478272D01*
Y205786D01*
X477439Y204953D01*
X481605Y200787D02*
Y201621D01*
X482438D01*
Y200787D01*
X481605D01*
X488269D02*
Y205786D01*
X485770Y203287D01*
X489102D01*
X490768Y201621D02*
X491601Y200787D01*
X493267D01*
X494101Y201621D01*
Y204953D01*
X493267Y205786D01*
X491601D01*
X490768Y204953D01*
Y204120D01*
X491601Y203287D01*
X494101D01*
X499099Y205786D02*
X497433Y204953D01*
X495767Y203287D01*
Y201621D01*
X496600Y200787D01*
X498266D01*
X499099Y201621D01*
Y202453D01*
X498266Y203287D01*
X495767D01*
X456693Y220701D02*
X457526Y221534D01*
X459192D01*
X460025Y220701D01*
Y219868D01*
X459192Y219035D01*
X458359D01*
X459192D01*
X460025Y218202D01*
Y217369D01*
X459192Y216535D01*
X457526D01*
X456693Y217369D01*
X461691Y216535D02*
X463357D01*
X462524D01*
Y221534D01*
X461691Y220701D01*
X465857Y216535D02*
Y217369D01*
X466690D01*
Y216535D01*
X465857D01*
X472521D02*
Y221534D01*
X470022Y219035D01*
X473354D01*
X475020Y217369D02*
X475853Y216535D01*
X477520D01*
X478353Y217369D01*
Y220701D01*
X477520Y221534D01*
X475853D01*
X475020Y220701D01*
Y219868D01*
X475853Y219035D01*
X478353D01*
X483351Y221534D02*
X481685Y220701D01*
X480019Y219035D01*
Y217369D01*
X480852Y216535D01*
X482518D01*
X483351Y217369D01*
Y218202D01*
X482518Y219035D01*
X480019D01*
M02*
