M48
;Layer_Color=9474304
;FILE_FORMAT=4:4
METRIC
;TYPE=PLATED
T1F00S00C0.6000
T2F00S00C0.8000
T3F00S00C0.8500
T4F00S00C5.0000
%
T01
X00925000Y00517500
X00970000Y00517500
X00970000Y00582500
X00925000Y00582500
T02
X01200000Y00515000
X01200000Y00585000
X01235000Y00550000
X01165000Y00550000
X00960000Y00550000
X00940000Y00550000
X00735000Y00550000
X00700000Y00515000
X00700000Y00585000
X00665000Y00550000
T03
X00870800Y00520000
X00899200Y00550000
X01000800Y00550000
X00769200Y00520000
T04
X01200000Y00550000
X00700000Y00550000
M30
